<svg xmlns="http://www.w3.org/2000/svg" width="16" height="16" fill="none" viewBox="0 0 16 16"><path fill="#fff" d="M8.018 3.875A4.11 4.11 0 0 0 3.91 7.982a4.085 4.085 0 0 0 4.107 4.107 4.11 4.11 0 0 0 4.107-4.107c0-2.25-1.857-4.107-4.107-4.107m0 6.786a2.675 2.675 0 0 1-2.679-2.679c0-1.464 1.179-2.643 2.679-2.643a2.637 2.637 0 0 1 2.643 2.643c0 1.5-1.179 2.679-2.643 2.679m5.214-6.929a.96.96 0 0 0-.964-.964.96.96 0 0 0-.964.964.96.96 0 0 0 .964.964.96.96 0 0 0 .964-.964m2.714.964c-.071-1.285-.357-2.428-1.285-3.357C13.732.411 12.589.125 11.304.054c-1.322-.072-5.286-.072-6.608 0C3.411.125 2.304.41 1.34 1.339.411 2.268.125 3.411.054 4.696c-.072 1.322-.072 5.286 0 6.608.071 1.285.357 2.392 1.285 3.357.965.928 2.072 1.214 3.357 1.285 1.322.072 5.286.072 6.608 0 1.285-.071 2.428-.357 3.357-1.285.928-.965 1.214-2.072 1.285-3.357.072-1.322.072-5.286 0-6.608m-1.714 8c-.25.715-.821 1.25-1.5 1.536-1.071.429-3.571.322-4.714.322-1.179 0-3.679.107-4.714-.322a2.7 2.7 0 0 1-1.536-1.536c-.429-1.035-.322-3.535-.322-4.714 0-1.143-.107-3.643.322-4.714a2.76 2.76 0 0 1 1.536-1.5c1.035-.429 3.535-.322 4.714-.322 1.143 0 3.643-.107 4.714.322.679.25 1.214.821 1.5 1.5.429 1.071.322 3.571.322 4.714 0 1.179.107 3.679-.322 4.714"/></svg>