<svg xmlns="http://www.w3.org/2000/svg" width="130" height="33" fill="none" viewBox="0 0 130 33"><path fill="#000" d="M14.4 28.472 14.384 31H.256V8.072h14.128V10.6H3.36v7.616h8.928v2.432H3.36v7.824zm6.44-21.04V31h-2.847V7.432zM25.46 31V14.792h1.711q.608 0 .752.592l.208 1.664a8.3 8.3 0 0 1 2.016-1.808q1.12-.705 2.592-.704 1.632 0 2.64.912 1.024.913 1.472 2.464a5.5 5.5 0 0 1 .896-1.52q.56-.64 1.248-1.056a5.3 5.3 0 0 1 1.456-.608 6.6 6.6 0 0 1 1.584-.192q1.28 0 2.272.416a4.36 4.36 0 0 1 1.696 1.184q.705.784 1.072 1.936.368 1.136.368 2.608V31H44.58V20.68q0-1.905-.832-2.88-.832-.992-2.4-.992-.704 0-1.344.256-.624.24-1.104.72A3.5 3.5 0 0 0 38.131 19q-.272.72-.272 1.68V31h-2.864V20.68q0-1.952-.784-2.912t-2.288-.96a3.54 3.54 0 0 0-1.952.576q-.896.56-1.648 1.536V31zm31.784-11.296q-1.696.896-2.56 2.176a4.94 4.94 0 0 0-.848 2.784q0 1.04.384 1.84.384.784 1.008 1.328t1.424.832a5 5 0 0 0 1.632.272q1.791 0 3.216-.656a8.2 8.2 0 0 0 2.512-1.76zM72.028 31H69.26q-.465 0-.752-.112-.288-.113-.624-.464l-2.32-2.336a11.7 11.7 0 0 1-3.472 2.32q-1.953.848-4.304.848a7.5 7.5 0 0 1-2.512-.432 7.1 7.1 0 0 1-2.192-1.248 6.35 6.35 0 0 1-1.568-2.016q-.592-1.184-.592-2.672 0-1.12.368-2.112a7 7 0 0 1 1.056-1.856 8.3 8.3 0 0 1 1.584-1.52 10.5 10.5 0 0 1 2-1.152q-.977-1.248-1.44-2.4a6.5 6.5 0 0 1-.464-2.416q0-1.169.416-2.192a5.2 5.2 0 0 1 1.232-1.776 5.7 5.7 0 0 1 1.936-1.2q1.151-.448 2.576-.448 1.263 0 2.304.416 1.04.4 1.792 1.072.751.672 1.184 1.568.447.88.512 1.84l-1.776.352q-.528.128-.784-.496a3.7 3.7 0 0 0-.368-.864 3.1 3.1 0 0 0-.64-.816 3.1 3.1 0 0 0-.944-.608q-.545-.24-1.28-.24-.802 0-1.456.256-.64.255-1.104.72a3 3 0 0 0-.688 1.072q-.24.608-.24 1.328a4.4 4.4 0 0 0 .528 2.112q.288.528.72 1.072.431.544 1.04 1.152l6.592 6.704q.607-1.088.976-2.256.368-1.184.48-2.352a.82.82 0 0 1 .192-.48q.16-.176.448-.176h1.744a12.3 12.3 0 0 1-.576 3.616 12.7 12.7 0 0 1-1.616 3.312zm24.38-11.456q0 2.576-.815 4.736-.816 2.144-2.304 3.696t-3.584 2.416q-2.08.848-4.608.848t-4.608-.848a10.4 10.4 0 0 1-3.568-2.416q-1.488-1.553-2.304-3.696-.816-2.16-.816-4.736t.816-4.72q.816-2.16 2.304-3.712a10.3 10.3 0 0 1 3.568-2.432q2.079-.864 4.608-.864t4.608.864q2.096.864 3.584 2.432 1.488 1.552 2.304 3.712.816 2.145.816 4.72m-3.183 0q0-2.112-.576-3.792t-1.632-2.832a7 7 0 0 0-2.56-1.792q-1.504-.624-3.36-.624-1.84 0-3.344.624a7.2 7.2 0 0 0-2.576 1.792q-1.056 1.152-1.632 2.832t-.576 3.792.576 3.792q.576 1.664 1.632 2.832a7.3 7.3 0 0 0 2.576 1.776q1.503.608 3.344.608 1.856 0 3.36-.608a7.1 7.1 0 0 0 2.56-1.776q1.056-1.168 1.632-2.832.576-1.68.576-3.792m15.331 4.16q-1.968.065-3.36.32-1.377.24-2.256.64-.865.4-1.264.944a2.06 2.06 0 0 0-.384 1.216q0 .64.208 1.104.207.464.56.768.368.288.848.432.495.128 1.056.128.752 0 1.376-.144a5.3 5.3 0 0 0 1.168-.448 6.2 6.2 0 0 0 1.056-.688q.512-.4.992-.912zm-9.2-6.624q1.344-1.296 2.896-1.936t3.44-.64q1.36 0 2.416.448a4.96 4.96 0 0 1 1.776 1.248q.72.8 1.088 1.936t.368 2.496V31h-1.264q-.417 0-.64-.128-.225-.144-.352-.544l-.32-1.536q-.64.593-1.248 1.056a8 8 0 0 1-1.28.768 7 7 0 0 1-1.44.464 7.4 7.4 0 0 1-1.68.176A6 6 0 0 1 101.34 31a4.3 4.3 0 0 1-1.456-.8 3.9 3.9 0 0 1-.976-1.328q-.352-.816-.352-1.92 0-.96.528-1.84.527-.896 1.712-1.584 1.183-.688 3.088-1.12 1.903-.449 4.672-.512v-1.264q0-1.888-.816-2.848-.816-.975-2.384-.976-1.056 0-1.776.272-.704.256-1.232.592-.512.32-.896.592-.369.256-.736.256a.85.85 0 0 1-.496-.144 1.5 1.5 0 0 1-.352-.384zm19.186-9.648v13.872h.736q.32 0 .528-.08.224-.096.464-.368l5.12-5.488q.224-.272.464-.416.255-.16.672-.16h2.576l-5.968 6.352a3.6 3.6 0 0 1-.928.848q.287.192.512.448.24.24.448.56l6.336 8h-2.544a1.7 1.7 0 0 1-.64-.112q-.256-.128-.448-.448l-5.328-6.64q-.24-.336-.48-.432-.225-.112-.704-.112h-.816V31h-2.864V7.432z"/></svg>