<svg xmlns="http://www.w3.org/2000/svg" width="14" height="18" fill="none" viewBox="0 0 14 18"><path fill="#fff" d="M7.438 0C3.682 0 0 2.451 0 6.453c0 2.523 1.422 3.965 2.297 3.965.364 0 .583-.973.583-1.261 0-.325-.875-1.046-.875-2.452 0-2.884 2.224-4.939 5.104-4.939 2.516 0 4.339 1.406 4.339 3.966 0 1.91-.766 5.48-3.281 5.48-.912 0-1.714-.65-1.714-1.55 0-1.37.984-2.704.984-4.11 0-2.38-3.427-1.947-3.427.937 0 .613.073 1.262.365 1.838-.51 2.127-1.531 5.336-1.531 7.535 0 .685.073 1.334.146 2.019.109.144.072.144.255.072 1.823-2.488 1.786-2.992 2.588-6.237.474.83 1.604 1.298 2.552 1.298 3.865 0 5.615-3.75 5.615-7.102C14 2.343 10.865 0 7.438 0"/></svg>