<svg aria-hidden="true" style="position: absolute; width: 0; height: 0; overflow: hidden;" version="1.1" xmlns="http://www.w3.org/2000/svg" xmlns:xlink="http://www.w3.org/1999/xlink">
<defs>
<symbol id="icon-facebook" viewBox="0 0 17 32">
<path fill="#fff" style="fill: var(--color1, #fff)" d="M15.74 18l0.857-5.75h-5.451v-3.75c0-1.625 0.735-3.125 3.185-3.125h2.511v-4.938c0 0-2.266-0.438-4.41-0.438-4.471 0-7.411 2.813-7.411 7.813v4.438h-5.022v5.75h5.022v14h6.124v-14h4.593z"></path>
</symbol>
<symbol id="icon-instagram" viewBox="0 0 32 32">
<path fill="#fff" style="fill: var(--color1, #fff)" d="M16.036 7.75c-4.571 0-8.214 3.714-8.214 8.214 0 4.572 3.643 8.214 8.214 8.214 4.5 0 8.214-3.643 8.214-8.214 0-4.5-3.714-8.214-8.214-8.214zM16.036 21.321c-2.929 0-5.357-2.357-5.357-5.357 0-2.929 2.357-5.286 5.357-5.286 2.929 0 5.286 2.357 5.286 5.286 0 3-2.357 5.357-5.286 5.357zM26.464 7.464c0-1.071-0.857-1.929-1.928-1.929s-1.929 0.857-1.929 1.929 0.857 1.929 1.929 1.929c1.071 0 1.928-0.857 1.928-1.929zM31.893 9.393c-0.143-2.571-0.714-4.857-2.571-6.714s-4.143-2.429-6.714-2.571c-2.643-0.143-10.571-0.143-13.214 0-2.571 0.143-4.786 0.714-6.714 2.571-1.857 1.857-2.429 4.143-2.571 6.714-0.143 2.643-0.143 10.571 0 13.214 0.143 2.571 0.714 4.786 2.571 6.714 1.929 1.857 4.143 2.429 6.714 2.571 2.643 0.143 10.571 0.143 13.214 0 2.571-0.143 4.857-0.714 6.714-2.571 1.857-1.929 2.429-4.143 2.571-6.714 0.143-2.643 0.143-10.571 0-13.214zM28.464 25.393c-0.5 1.429-1.643 2.5-3 3.071-2.143 0.857-7.143 0.643-9.428 0.643-2.357 0-7.357 0.214-9.429-0.643-1.429-0.571-2.5-1.643-3.071-3.071-0.857-2.071-0.643-7.071-0.643-9.429 0-2.286-0.214-7.286 0.643-9.429 0.571-1.357 1.643-2.429 3.071-3 2.071-0.857 7.071-0.643 9.429-0.643 2.286 0 7.286-0.214 9.428 0.643 1.357 0.5 2.429 1.643 3 3 0.857 2.143 0.643 7.143 0.643 9.429 0 2.357 0.214 7.357-0.643 9.429z"></path>
</symbol>
<symbol id="icon-pinterest" viewBox="0 0 25 32">
<path fill="#fff" style="fill: var(--color1, #fff)" d="M13.222 0c-6.676 0-13.222 4.358-13.222 11.472 0 4.486 2.528 7.050 4.083 7.050 0.648 0 1.037-1.73 1.037-2.243 0-0.577-1.556-1.859-1.556-4.358 0-5.127 3.954-8.78 9.074-8.78 4.472 0 7.713 2.499 7.713 7.050 0 3.397-1.361 9.741-5.833 9.741-1.62 0-3.046-1.154-3.046-2.756 0-2.435 1.75-4.807 1.75-7.306 0-4.23-6.093-3.461-6.093 1.666 0 1.089 0.13 2.243 0.648 3.268-0.907 3.781-2.722 9.485-2.722 13.394 0 1.218 0.13 2.371 0.259 3.589 0.194 0.256 0.13 0.256 0.454 0.128 3.241-4.422 3.176-5.319 4.602-11.087 0.843 1.474 2.852 2.307 4.537 2.307 6.87 0 9.981-6.665 9.981-12.625 0-6.345-5.574-10.51-11.667-10.51z"></path>
</symbol>
<symbol id="icon-twitter" viewBox="0 0 41 32">
<path fill="#fff" style="fill: var(--color1, #fff)" d="M36.409 7.942c1.587-1.157 3.014-2.545 4.125-4.164-1.428 0.617-3.094 1.080-4.759 1.234 1.745-1.002 3.014-2.545 3.649-4.472-1.587 0.925-3.411 1.619-5.235 2.005-1.586-1.619-3.728-2.545-6.108-2.545-4.601 0-8.329 3.624-8.329 8.096 0 0.617 0.079 1.234 0.238 1.851-6.901-0.386-13.088-3.624-17.213-8.482-0.714 1.157-1.111 2.545-1.111 4.087 0 2.776 1.428 5.243 3.728 6.708-1.348-0.077-2.697-0.386-3.807-1.002v0.077c0 3.933 2.856 7.171 6.663 7.942-0.635 0.154-1.428 0.308-2.142 0.308-0.555 0-1.031-0.077-1.586-0.154 1.031 3.239 4.125 5.552 7.774 5.629-2.856 2.159-6.425 3.47-10.312 3.47-0.714 0-1.348-0.077-1.983-0.154 3.649 2.313 8.011 3.624 12.771 3.624 15.309 0 23.638-12.26 23.638-22.978 0-0.386 0-0.694 0-1.080z"></path>
</symbol>
<symbol id="icon-youtube" viewBox="0 0 43 32">
<path fill="#fff" style="fill: var(--color1, #fff)" d="M41.731 5.083c-0.468-2-1.95-3.583-3.744-4.083-3.354-1-16.614-1-16.614-1s-13.338 0-16.692 1c-1.794 0.5-3.276 2.083-3.744 4.083-0.936 3.5-0.936 11-0.936 11s0 7.417 0.936 11c0.468 2 1.95 3.5 3.744 4 3.354 0.917 16.692 0.917 16.692 0.917s13.26 0 16.614-0.917c1.794-0.5 3.276-2 3.744-4 0.936-3.583 0.936-11 0.936-11s0-7.5-0.936-11zM17.004 22.833v-13.5l11.076 6.75-11.076 6.75z"></path>
</symbol>
</defs>
</svg>
