<svg xmlns="http://www.w3.org/2000/svg" width="19" height="15" fill="none" viewBox="0 0 19 15"><path fill="#fff" d="M17.067 3.723C17.81 3.18 18.48 2.53 19 1.77c-.67.29-1.45.506-2.23.578A3.73 3.73 0 0 0 18.48.253a8.4 8.4 0 0 1-2.455.94A3.96 3.96 0 0 0 13.162 0c-2.156 0-3.904 1.699-3.904 3.795q0 .434.112.868C6.135 4.482 3.235 2.963 1.3.687a3.6 3.6 0 0 0-.52 1.915c0 1.302.67 2.458 1.747 3.145-.632-.036-1.264-.18-1.784-.47v.036c0 1.844 1.338 3.362 3.123 3.723-.298.072-.67.145-1.004.145-.26 0-.483-.036-.744-.073.484 1.518 1.934 2.603 3.644 2.639A8 8 0 0 1 .93 13.374c-.335 0-.633-.037-.93-.073C1.71 14.386 3.755 15 5.986 15c7.176 0 11.08-5.747 11.08-10.771z"/></svg>